<?xml version="1.0" ?><svg enable-background="new 0 0 24 24" id="Layer_1" version="1.1" viewBox="0 0 24 24" xml:space="preserve" xmlns="http://www.w3.org/2000/svg" xmlns:xlink="http://www.w3.org/1999/xlink"><g><g><circle cx="8.5" cy="9.5" fill="#0A99D6" r="2.5"/><circle cx="15.5" cy="9.5" fill="#0A99D6" r="2.5"/><path d="M23.8310547,11.125c-0.1972656-0.1748047-0.4970703-0.1660156-0.6845703,0.0214844    C23.0993652,11.1936035,23.0488892,11.2387085,23,11.284729V2.5C23,1.1210938,21.8789063,0,20.5,0h-17    C2.1210938,0,1,1.1210938,1,2.5v8.784729c-0.0488892-0.0460205-0.0993652-0.0911255-0.1464844-0.1382446    c-0.1875-0.1865234-0.4873047-0.1962891-0.6845703-0.0214844s-0.2255859,0.4726563-0.0644531,0.6816406    c1.9238281,2.4804688,4.2988281,3.6162109,5.2880859,4.0068359C5.2363281,16.4511719,5,17.7119141,5,19.5    C5,22.3974609,7.3652344,24,9,24c1.0380859,0,2.5-0.6201172,2.5-2v-4.9238281l1,0.1435547V22c0,1.3798828,1.4619141,2,2.5,2    c1.6347656,0,4-1.6025391,4-4.5c0-1.7880859-0.2363281-3.0488281-0.3925781-3.6865234    c0.9892578-0.390625,3.3642578-1.5263672,5.2880859-4.0068359C24.0566406,11.5976563,24.0283203,11.2998047,23.8310547,11.125z     M3,2.5C3,2.2246094,3.2246094,2,3.5,2h17C20.7753906,2,21,2.2246094,21,2.5v10.0379639    C19.484375,13.1422729,17.2282104,13.5,13.5,13.5c-0.6972656,0-0.9023438,0.6552734-0.9658203,1.4423828    c-0.78125-0.5830078-1.3554688-1.0283203-1.7138672-1.3261719C10.7304688,13.5410156,10.6171875,13.5,10.5,13.5    c-3.7282104,0-5.984375-0.3577271-7.5-0.9620361V2.5z" fill="#0A99D6"/></g><path d="M8.5,7.25c1.3361206,0,2.4207764,1.0551758,2.4873657,2.375   C10.989502,9.5827026,11,9.5427856,11,9.5C11,8.1210938,9.8789063,7,8.5,7S6,8.1210938,6,9.5   c0,0.0427856,0.010498,0.0827026,0.0126343,0.125C6.0792236,8.3051758,7.1638794,7.25,8.5,7.25z" fill="#FFFFFF" opacity="0.2"/><path d="M15.5,7.25c1.3361206,0,2.4207764,1.0551758,2.4873657,2.375   C17.989502,9.5827026,18,9.5427856,18,9.5C18,8.1210938,16.8789063,7,15.5,7S13,8.1210938,13,9.5   c0,0.0427856,0.010498,0.0827026,0.0126343,0.125C13.0792236,8.3051758,14.1638794,7.25,15.5,7.25z" fill="#FFFFFF" opacity="0.2"/><path d="M3,12.7879639C4.515625,13.3922729,6.7717896,13.75,10.5,13.75   c0.1171875,0,0.2304688,0.0410156,0.3203125,0.1162109c0.3583984,0.2978516,0.9326172,0.7431641,1.7138672,1.3261719   C12.5976563,14.4052734,12.8027344,13.75,13.5,13.75c3.7282104,0,5.984375-0.3577271,7.5-0.9620361v-0.25   C19.484375,13.1422729,17.2282104,13.5,13.5,13.5c-0.6972656,0-0.9023438,0.6552734-0.9658203,1.4423828   c-0.78125-0.5830078-1.3554688-1.0283203-1.7138672-1.3261719C10.7304688,13.5410156,10.6171875,13.5,10.5,13.5   c-3.7282104,0-5.984375-0.3577271-7.5-0.9620361V12.7879639z" fill="#FFFFFF" opacity="0.2"/><path d="M3.5,0.25h17c1.3789063,0,2.5,1.1210938,2.5,2.5V2.5C23,1.1210938,21.8789063,0,20.5,0h-17   C2.1210938,0,1,1.1210938,1,2.5v0.25C1,1.3710938,2.1210938,0.25,3.5,0.25z" fill="#FFFFFF" opacity="0.2"/><path d="M23.9795532,11.3896484c-0.0170288,0.0588379-0.0444946,0.1157227-0.0840454,0.1669922   c-1.9238281,2.4804688-4.3512573,3.6383667-5.3405151,4.0289917c0.0166016,0.067749,0.0344238,0.1461792,0.0524292,0.2278442   c1.0151978-0.4070435,3.3934326-1.5639648,5.2880859-4.0068359C23.9904785,11.6834717,24.0120239,11.531189,23.9795532,11.3896484z   " fill="#010101" opacity="0.1"/><path d="M15,23.75c-1.0380859,0-2.5-0.6201172-2.5-2V22c0,1.3798828,1.4619141,2,2.5,2   c1.6347656,0,4-1.6025391,4-4.5c0-0.074707-0.0026855-0.1430054-0.003479-0.2158813   C18.9769897,22.1587524,16.6279907,23.75,15,23.75z" fill="#010101" opacity="0.1"/><polygon fill="#010101" opacity="0.1" points="12.5,16.9697266 11.5,16.8261719 11.5,17.0761719 12.5,17.2197266  "/><path d="M9,23.75c-1.6279907,0-3.9769897-1.5912476-3.996521-4.4658813   C5.0026855,19.3569946,5,19.425293,5,19.5C5,22.3974609,7.3652344,24,9,24c1.0380859,0,2.5-0.6201172,2.5-2v-0.25   C11.5,23.1298828,10.0380859,23.75,9,23.75z" fill="#010101" opacity="0.1"/><path d="M21,2.25c0-0.2753906-0.2246094-0.5-0.5-0.5h-17C3.2246094,1.75,3,1.9746094,3,2.25V2.5   C3,2.2246094,3.2246094,2,3.5,2h17C20.7753906,2,21,2.2246094,21,2.5V2.25z" fill="#010101" opacity="0.1"/><path d="M0.1044922,11.5566406c-0.0395508-0.0512695-0.0670166-0.1081543-0.0840454-0.1669922   c-0.0324707,0.1415405-0.0109253,0.2938232,0.0840454,0.4169922c1.8946533,2.4428711,4.2728882,3.5997925,5.2880859,4.0068359   c0.0180054-0.081665,0.0358276-0.1600952,0.0524292-0.2278442C4.4557495,15.1950073,2.0283203,14.0371094,0.1044922,11.5566406z" fill="#010101" opacity="0.1"/><linearGradient gradientUnits="userSpaceOnUse" id="SVGID_1_" x1="-0.4067827" x2="22.1874733" y1="4.9626179" y2="15.4984922"><stop offset="0" style="stop-color:#FFFFFF;stop-opacity:0.2"/><stop offset="1" style="stop-color:#FFFFFF;stop-opacity:0"/></linearGradient><path d="M8.5,7C7.1210938,7,6,8.1210938,6,9.5S7.1210938,12,8.5,12S11,10.8789063,11,9.5S9.8789063,7,8.5,7z    M23.8310547,11.125c-0.1972656-0.1748047-0.4970703-0.1660156-0.6845703,0.0214844   C23.0993652,11.1936035,23.0488892,11.2387085,23,11.284729V2.5C23,1.1210938,21.8789063,0,20.5,0h-17   C2.1210938,0,1,1.1210938,1,2.5v8.784729c-0.0488892-0.0460205-0.0993652-0.0911255-0.1464844-0.1382446   c-0.1875-0.1865234-0.4873047-0.1962891-0.6845703-0.0214844s-0.2255859,0.4726563-0.0644531,0.6816406   c1.9238281,2.4804688,4.2988281,3.6162109,5.2880859,4.0068359C5.2363281,16.4511719,5,17.7119141,5,19.5   C5,22.3974609,7.3652344,24,9,24c1.0380859,0,2.5-0.6201172,2.5-2v-4.9238281l1,0.1435547V22c0,1.3798828,1.4619141,2,2.5,2   c1.6347656,0,4-1.6025391,4-4.5c0-1.7880859-0.2363281-3.0488281-0.3925781-3.6865234   c0.9892578-0.390625,3.3642578-1.5263672,5.2880859-4.0068359C24.0566406,11.5976563,24.0283203,11.2998047,23.8310547,11.125z    M21,12.5379639C19.484375,13.1422729,17.2282104,13.5,13.5,13.5c-0.6972656,0-0.9023438,0.6552734-0.9658203,1.4423828   c-0.78125-0.5830078-1.3554688-1.0283203-1.7138672-1.3261719C10.7304688,13.5410156,10.6171875,13.5,10.5,13.5   c-3.7282104,0-5.984375-0.3577271-7.5-0.9620361V2.5C3,2.2246094,3.2246094,2,3.5,2h17C20.7753906,2,21,2.2246094,21,2.5   V12.5379639z M15.5,7C14.1210938,7,13,8.1210938,13,9.5s1.1210938,2.5,2.5,2.5S18,10.8789063,18,9.5S16.8789063,7,15.5,7z" fill="url(#SVGID_1_)"/></g><g/><g/><g/><g/><g/><g/><g/><g/><g/><g/><g/><g/><g/><g/><g/></svg>